<svg xmlns="http://www.w3.org/2000/svg" xmlns:xlink="http://www.w3.org/1999/xlink" width="18px" height="18px" viewBox="0 0 18 18" version="1.1">
<g id="surface1">
<path style=" stroke:none;fill-rule:nonzero;fill:#9ca3af;fill-opacity:1;" d="M 10.484375 17.609375 C 10.273438 17.332031 10.234375 16.960938 10.386719 16.648438 C 10.585938 16.261719 10.664062 15.824219 10.613281 15.390625 C 10.570312 15.082031 10.46875 14.78125 10.3125 14.511719 C 10.15625 14.246094 9.949219 14.015625 9.703125 13.832031 C 8.863281 13.199219 8.273438 12.289062 8.039062 11.265625 C 6.117188 13.785156 6.851562 15.214844 7.773438 16.472656 C 7.996094 16.777344 7.988281 17.191406 7.757812 17.488281 C 7.644531 17.632812 7.488281 17.742188 7.316406 17.804688 C 7.140625 17.867188 6.953125 17.875 6.777344 17.832031 C 5.535156 17.527344 4.363281 16.949219 3.570312 16.027344 C 3.121094 15.515625 2.773438 14.921875 2.550781 14.277344 C 2.324219 13.628906 2.226562 12.945312 2.253906 12.257812 C 2.253906 12.257812 2.105469 9.484375 5.445312 6.769531 C 5.445312 6.769531 9.394531 3.421875 8.027344 0.945312 C 7.921875 0.695312 7.972656 0.410156 8.152344 0.210938 C 8.328125 0.0117188 8.609375 -0.0546875 8.851562 0.0429688 L 9.015625 0.109375 C 10.503906 1.050781 11.667969 2.425781 12.347656 4.046875 C 13 5.636719 12.996094 7.488281 12.554688 9.140625 C 12.917969 8.8125 13.222656 8.417969 13.453125 7.976562 L 13.488281 7.90625 C 13.710938 7.367188 14.410156 7.539062 14.675781 7.890625 C 14.769531 8.042969 17.253906 11.652344 15.917969 14.695312 C 15.433594 15.617188 14.71875 16.402344 13.851562 16.976562 C 13.121094 17.460938 12.304688 17.800781 11.445312 17.980469 C 11.265625 18.015625 11.082031 18.003906 10.914062 17.9375 C 10.742188 17.871094 10.59375 17.757812 10.484375 17.609375 Z M 8.5 8.878906 C 8.714844 8.765625 8.984375 8.835938 9.117188 9.042969 C 9.160156 9.109375 9.191406 9.183594 9.203125 9.265625 L 9.253906 9.65625 C 9.273438 10.234375 9.269531 10.832031 9.492188 11.386719 C 9.722656 11.953125 10.082031 12.453125 10.539062 12.847656 C 11.128906 13.234375 11.585938 13.792969 11.84375 14.445312 C 12.09375 15.082031 12.125 15.785156 11.941406 16.441406 C 12.511719 16.261719 13.042969 15.972656 13.503906 15.589844 L 13.621094 15.496094 C 13.996094 15.183594 14.308594 14.792969 14.535156 14.351562 C 14.761719 13.910156 14.894531 13.421875 14.933594 12.921875 C 15.003906 11.769531 14.613281 10.613281 14 9.578125 C 13.722656 9.984375 13.339844 10.296875 12.894531 10.484375 C 12.617188 10.601562 12.320312 10.675781 12.019531 10.699219 C 11.847656 10.707031 11.675781 10.667969 11.527344 10.585938 C 11.375 10.5 11.25 10.371094 11.164062 10.214844 C 11.027344 9.964844 11.011719 9.660156 11.125 9.394531 C 11.589844 8.300781 11.734375 7.089844 11.535156 5.910156 C 11.304688 4.5625 10.660156 3.320312 9.691406 2.355469 C 9.515625 4.835938 6.96875 7.148438 6.449219 7.644531 C 6.367188 7.71875 6.285156 7.792969 6.195312 7.863281 C 3.46875 10.074219 3.652344 12.085938 3.652344 12.175781 C 3.601562 12.976562 3.777344 13.773438 4.171875 14.472656 C 4.582031 15.199219 5.171875 15.796875 5.878906 16.207031 C 5.0625 14.410156 5.0625 12.25 8.082031 9.15625 L 8.5 8.875 Z M 8.5 8.878906 "/>
</g>
</svg>