<?xml version="1.0" encoding="UTF-8"?>
<svg xmlns="http://www.w3.org/2000/svg" xmlns:xlink="http://www.w3.org/1999/xlink" width="35px" height="35px" viewBox="0 0 35 35" version="1.1">
<g id="surface1">
<path style=" stroke:none;fill-rule:nonzero;fill:rgb(0%,0%,0%);fill-opacity:1;" d="M 31.308594 16.3125 L 29.808594 14.226562 C 29.125 13.269531 28.023438 12.699219 26.847656 12.695312 L 20.460938 12.695312 L 20.460938 9.574219 C 20.460938 7.558594 18.828125 5.929688 16.816406 5.929688 L 6.648438 5.929688 C 4.640625 5.933594 3.011719 7.5625 3.003906 9.574219 L 3.003906 24.070312 C 3.003906 25.277344 3.984375 26.257812 5.191406 26.257812 L 6.972656 26.257812 C 7.199219 27.871094 8.578125 29.070312 10.207031 29.070312 C 11.835938 29.070312 13.21875 27.871094 13.445312 26.257812 L 21.554688 26.257812 C 21.78125 27.871094 23.164062 29.070312 24.792969 29.070312 C 26.421875 29.070312 27.800781 27.871094 28.027344 26.257812 L 29.808594 26.257812 C 31.015625 26.257812 31.996094 25.277344 31.996094 24.070312 L 31.996094 18.425781 C 31.992188 17.667969 31.753906 16.929688 31.308594 16.3125 Z M 10.207031 27.613281 C 9.203125 27.613281 8.386719 26.796875 8.386719 25.789062 C 8.386719 24.785156 9.203125 23.96875 10.207031 23.96875 C 11.214844 23.96875 12.03125 24.785156 12.03125 25.789062 C 12.03125 26.796875 11.214844 27.613281 10.207031 27.613281 Z M 19.003906 24.800781 L 13.34375 24.800781 C 12.90625 23.433594 11.640625 22.507812 10.207031 22.507812 C 8.777344 22.507812 7.507812 23.433594 7.074219 24.800781 L 5.191406 24.800781 C 4.789062 24.800781 4.460938 24.472656 4.460938 24.070312 L 4.460938 9.574219 C 4.460938 8.367188 5.441406 7.386719 6.648438 7.386719 L 16.816406 7.386719 C 18.023438 7.386719 19.003906 8.367188 19.003906 9.574219 Z M 24.792969 27.613281 C 23.785156 27.613281 22.96875 26.796875 22.96875 25.789062 C 22.96875 24.785156 23.785156 23.96875 24.792969 23.96875 C 25.796875 23.96875 26.613281 24.785156 26.613281 25.789062 C 26.613281 26.796875 25.796875 27.613281 24.792969 27.613281 Z M 30.539062 24.070312 C 30.539062 24.472656 30.210938 24.800781 29.808594 24.800781 L 27.925781 24.800781 C 27.492188 23.433594 26.222656 22.507812 24.792969 22.507812 C 23.359375 22.507812 22.09375 23.433594 21.65625 24.800781 L 20.460938 24.800781 L 20.460938 14.152344 L 26.847656 14.152344 C 27.554688 14.15625 28.214844 14.5 28.628906 15.070312 L 30.128906 17.15625 C 30.390625 17.527344 30.535156 17.972656 30.539062 18.425781 Z M 30.539062 24.070312 "/>
<path style=" stroke:none;fill-rule:nonzero;fill:rgb(0%,0%,0%);fill-opacity:1;" d="M 26.292969 17.800781 L 23.375 17.800781 C 22.972656 17.800781 22.644531 17.472656 22.644531 17.070312 C 22.644531 16.667969 22.972656 16.339844 23.375 16.339844 L 26.292969 16.339844 C 26.695312 16.339844 27.019531 16.667969 27.019531 17.070312 C 27.019531 17.472656 26.695312 17.800781 26.292969 17.800781 Z M 26.292969 17.800781 "/>
</g>
</svg>
