<svg xmlns="http://www.w3.org/2000/svg" xmlns:xlink="http://www.w3.org/1999/xlink" width="18px" height="18px" viewBox="0 0 18 18" version="1.1">
<g id="surface1">
<path style=" stroke:none;fill-rule:nonzero;fill:#9ca3af;fill-opacity:1;" d="M 16.5 15.75 L 1.5 15.75 L 1.5 14.25 L 2.25 14.25 L 2.25 3 C 2.25 2.585938 2.585938 2.25 3 2.25 L 13.5 2.25 C 13.914062 2.25 14.25 2.585938 14.25 3 L 14.25 6.75 L 15.75 6.75 L 15.75 14.25 L 16.5 14.25 Z M 12.75 14.25 L 14.25 14.25 L 14.25 8.25 L 9.75 8.25 L 9.75 14.25 L 11.25 14.25 L 11.25 9.75 L 12.75 9.75 Z M 12.75 6.75 L 12.75 3.75 L 3.75 3.75 L 3.75 14.25 L 8.25 14.25 L 8.25 6.75 Z M 5.25 8.25 L 6.75 8.25 L 6.75 9.75 L 5.25 9.75 Z M 5.25 11.25 L 6.75 11.25 L 6.75 12.75 L 5.25 12.75 Z M 5.25 5.25 L 6.75 5.25 L 6.75 6.75 L 5.25 6.75 Z M 5.25 5.25 "/>
</g>
</svg>