<?xml version="1.0" encoding="iso-8859-1"?>
<!-- Uploaded to: SVG Repo, www.svgrepo.com, Generator: SVG Repo Mixer Tools -->
<svg fill="#000000" height="800px" width="800px" version="1.1" id="Layer_1" xmlns="http://www.w3.org/2000/svg" xmlns:xlink="http://www.w3.org/1999/xlink" 
	 viewBox="0 0 512 512" xml:space="preserve">
<g>
	<g>
		<path d="M424.076,110.145c4.893,0,8.859-3.966,8.859-8.859V8.859c0-4.892-3.965-8.859-8.859-8.859H87.924
			c-4.893,0-8.859,3.966-8.859,8.859V480.29c0,3.246,1.775,6.232,4.627,7.783l42.019,22.852c2.639,1.435,5.825,1.435,8.464,0
			l37.786-20.549l37.787,20.549c1.319,0.717,2.776,1.076,4.232,1.076c1.456,0,2.913-0.359,4.232-1.076L256,490.374l37.786,20.549
			c2.638,1.434,5.824,1.435,8.464,0l37.787-20.549l37.787,20.549c2.639,1.435,5.825,1.435,8.464,0l42.018-22.852
			c2.851-1.551,4.627-4.537,4.627-7.783V134.358c0-4.892-3.965-8.859-8.859-8.859c-4.893,0-8.859,3.966-8.859,8.859v340.665
			l-33.159,18.034l-37.787-20.549c-2.639-1.435-5.825-1.435-8.464,0l-37.787,20.549l-37.786-20.549
			c-2.638-1.434-5.824-1.435-8.464,0l-37.787,20.549l-37.787-20.549c-2.639-1.435-5.825-1.435-8.464,0l-37.786,20.549
			l-33.161-18.032V17.717h318.435v83.569C415.217,106.179,419.182,110.145,424.076,110.145z"/>
	</g>
</g>
<g>
	<g>
		<path d="M333.065,62.006H178.935c-4.893,0-8.859,3.966-8.859,8.859s3.965,8.859,8.859,8.859h154.131
			c4.893,0,8.859-3.966,8.859-8.859S337.959,62.006,333.065,62.006z"/>
	</g>
</g>
<g>
	<g>
		<path d="M361.516,139.958h-65.002c-4.893,0-8.859,3.966-8.859,8.859c0,4.892,3.965,8.859,8.859,8.859h65.002
			c4.893,0,8.859-3.966,8.859-8.859C370.374,143.924,366.409,139.958,361.516,139.958z"/>
	</g>
</g>
<g>
	<g>
		<path d="M265.804,139.958H150.486c-4.893,0-8.859,3.966-8.859,8.859c0,4.892,3.965,8.859,8.859,8.859h115.318
			c4.893,0,8.859-3.966,8.859-8.859C274.663,143.924,270.698,139.958,265.804,139.958z"/>
	</g>
</g>
<g>
	<g>
		<path d="M361.516,226.76H200.843c-4.893,0-8.859,3.966-8.859,8.859c0,4.892,3.965,8.859,8.859,8.859h160.673
			c4.893,0,8.859-3.966,8.859-8.859C370.374,230.727,366.409,226.76,361.516,226.76z"/>
	</g>
</g>
<g>
	<g>
		<path d="M170.132,226.76h-19.646c-4.893,0-8.859,3.966-8.859,8.859c0,4.892,3.965,8.859,8.859,8.859h19.646
			c4.893,0,8.859-3.966,8.859-8.859C178.99,230.727,175.025,226.76,170.132,226.76z"/>
	</g>
</g>
<g>
	<g>
		<path d="M361.516,183.359h-211.03c-4.893,0-8.859,3.966-8.859,8.859s3.965,8.859,8.859,8.859h211.03
			c4.893,0,8.859-3.966,8.859-8.859S366.409,183.359,361.516,183.359z"/>
	</g>
</g>
<g>
	<g>
		<path d="M361.516,365.271h-40.198c-4.893,0-8.859,3.966-8.859,8.859s3.965,8.859,8.859,8.859h40.198
			c4.893,0,8.859-3.966,8.859-8.859S366.409,365.271,361.516,365.271z"/>
	</g>
</g>
<g>
	<g>
		<path d="M361.516,400.706h-81.538c-4.893,0-8.859,3.966-8.859,8.859c0,4.892,3.965,8.859,8.859,8.859h81.538
			c4.893,0,8.859-3.966,8.859-8.859C370.374,404.672,366.409,400.706,361.516,400.706z"/>
	</g>
</g>
<g>
	<g>
		<path d="M288.246,365.271h-137.76c-4.893,0-8.859,3.966-8.859,8.859s3.965,8.859,8.859,8.859h137.76
			c4.893,0,8.859-3.966,8.859-8.859S293.139,365.271,288.246,365.271z"/>
	</g>
</g>
</svg>