<?xml version="1.0" encoding="UTF-8"?>
<svg xmlns="http://www.w3.org/2000/svg" xmlns:xlink="http://www.w3.org/1999/xlink" width="20px" height="20px" viewBox="0 0 20 20" version="1.1">
<g id="surface1">
<path style=" stroke:none;fill-rule:nonzero;fill:rgb(0%,0%,0%);fill-opacity:1;" d="M 15.625 8.125 C 15.625 5.019531 13.105469 2.5 10 2.5 C 6.894531 2.5 4.375 5.019531 4.375 8.125 C 4.375 10.433594 6.222656 13.441406 10 17.042969 C 13.777344 13.441406 15.625 10.433594 15.625 8.125 Z M 10 18.75 C 5.417969 14.582031 3.125 11.042969 3.125 8.125 C 3.125 4.328125 6.203125 1.25 10 1.25 C 13.796875 1.25 16.875 4.328125 16.875 8.125 C 16.875 11.042969 14.582031 14.582031 10 18.75 Z M 10 18.75 "/>
<path style=" stroke:none;fill-rule:nonzero;fill:rgb(0%,0%,0%);fill-opacity:1;" d="M 10 8.75 C 10.691406 8.75 11.25 8.191406 11.25 7.5 C 11.25 6.808594 10.691406 6.25 10 6.25 C 9.308594 6.25 8.75 6.808594 8.75 7.5 C 8.75 8.191406 9.308594 8.75 10 8.75 Z M 10 10 C 8.621094 10 7.5 8.878906 7.5 7.5 C 7.5 6.121094 8.621094 5 10 5 C 11.378906 5 12.5 6.121094 12.5 7.5 C 12.5 8.878906 11.378906 10 10 10 Z M 16.75 13.75 L 18.75 18.75 L 13.125 18.75 L 13.125 17.5 L 6.875 17.5 L 6.875 18.75 L 1.25 18.75 L 3.25 13.75 Z M 15.402344 13.75 L 4.597656 13.75 L 3.097656 17.5 L 16.902344 17.5 Z M 15.402344 13.75 "/>
</g>
</svg>
