<?xml version="1.0" encoding="UTF-8"?>
<svg xmlns="http://www.w3.org/2000/svg" xmlns:xlink="http://www.w3.org/1999/xlink" width="20px" height="20px" viewBox="0 0 20 20" version="1.1">
<g id="surface1">
<path style=" stroke:none;fill-rule:nonzero;fill:rgb(0%,0%,0%);fill-opacity:1;" d="M 13.21875 1.246094 C 13.511719 1.246094 13.75 1.484375 13.75 1.777344 L 13.75 18.222656 C 13.75 18.515625 13.511719 18.753906 13.21875 18.753906 L 6.78125 18.753906 C 6.488281 18.753906 6.25 18.515625 6.25 18.222656 L 6.25 1.777344 C 6.25 1.484375 6.488281 1.246094 6.78125 1.246094 L 13.21875 1.246094 M 13.21875 0 L 6.78125 0 C 5.800781 0 5.003906 0.796875 5.003906 1.777344 L 5.003906 18.222656 C 5.003906 19.203125 5.800781 20 6.78125 20 L 13.21875 20 C 14.199219 20 14.996094 19.203125 14.996094 18.222656 L 14.996094 1.777344 C 14.996094 0.796875 14.199219 0 13.21875 0 Z M 13.21875 0 "/>
<path style=" stroke:none;fill-rule:nonzero;fill:rgb(0%,0%,0%);fill-opacity:1;" d="M 10.710938 16.917969 C 10.710938 17.3125 10.394531 17.632812 10 17.632812 C 9.605469 17.632812 9.289062 17.3125 9.289062 16.917969 C 9.289062 16.527344 9.605469 16.207031 10 16.207031 C 10.394531 16.207031 10.710938 16.527344 10.710938 16.917969 Z M 10.710938 16.917969 "/>
<path style=" stroke:none;fill-rule:nonzero;fill:rgb(0%,0%,0%);fill-opacity:1;" d="M 10 16.207031 C 9.605469 16.207031 9.289062 16.527344 9.285156 16.917969 C 9.285156 17.3125 9.605469 17.632812 10 17.632812 C 10.394531 17.632812 10.710938 17.3125 10.710938 16.917969 C 10.710938 16.527344 10.390625 16.207031 10 16.207031 Z M 10 16.207031 "/>
</g>
</svg>
