<svg xmlns="http://www.w3.org/2000/svg" xmlns:xlink="http://www.w3.org/1999/xlink" width="18px" height="18px" viewBox="0 0 18 18" version="1.1">
<g id="surface1">
<path style="fill:#000000;stroke-width:2;stroke-linecap:round;stroke-linejoin:round;stroke:#9ca3af;stroke-opacity:1;stroke-miterlimit:4;" d="M 3 12 L 21 12 M 12 8 L 12 12 M 6.5 12 L 6.5 16 M 17.5 12 L 17.5 16 M 10.098958 8 L 13.901042 8 C 14.458333 8 14.739583 8 14.953125 7.890625 C 15.140625 7.796875 15.296875 7.640625 15.390625 7.453125 C 15.5 7.239583 15.5 6.958333 15.5 6.401042 L 15.5 4.598958 C 15.5 4.041667 15.5 3.760417 15.390625 3.546875 C 15.296875 3.359375 15.140625 3.203125 14.953125 3.109375 C 14.739583 3 14.458333 3 13.901042 3 L 10.098958 3 C 9.541667 3 9.260417 3 9.046875 3.109375 C 8.859375 3.203125 8.703125 3.359375 8.609375 3.546875 C 8.5 3.760417 8.5 4.041667 8.5 4.598958 L 8.5 6.401042 C 8.5 6.958333 8.5 7.239583 8.609375 7.453125 C 8.703125 7.640625 8.859375 7.796875 9.046875 7.890625 C 9.260417 8 9.541667 8 10.098958 8 Z M 15.598958 21 L 19.401042 21 C 19.958333 21 20.239583 21 20.453125 20.890625 C 20.640625 20.796875 20.796875 20.640625 20.890625 20.453125 C 21 20.239583 21 19.958333 21 19.401042 L 21 17.598958 C 21 17.041667 21 16.760417 20.890625 16.546875 C 20.796875 16.359375 20.640625 16.203125 20.453125 16.109375 C 20.239583 16 19.958333 16 19.401042 16 L 15.598958 16 C 15.041667 16 14.760417 16 14.546875 16.109375 C 14.359375 16.203125 14.203125 16.359375 14.109375 16.546875 C 14 16.760417 14 17.041667 14 17.598958 L 14 19.401042 C 14 19.958333 14 20.239583 14.109375 20.453125 C 14.203125 20.640625 14.359375 20.796875 14.546875 20.890625 C 14.760417 21 15.041667 21 15.598958 21 Z M 4.598958 21 L 8.401042 21 C 8.958333 21 9.239583 21 9.453125 20.890625 C 9.640625 20.796875 9.796875 20.640625 9.890625 20.453125 C 10 20.239583 10 19.958333 10 19.401042 L 10 17.598958 C 10 17.041667 10 16.760417 9.890625 16.546875 C 9.796875 16.359375 9.640625 16.203125 9.453125 16.109375 C 9.239583 16 8.958333 16 8.401042 16 L 4.598958 16 C 4.041667 16 3.760417 16 3.546875 16.109375 C 3.359375 16.203125 3.203125 16.359375 3.109375 16.546875 C 3 16.760417 3 17.041667 3 17.598958 L 3 19.401042 C 3 19.958333 3 20.239583 3.109375 20.453125 C 3.203125 20.640625 3.359375 20.796875 3.546875 20.890625 C 3.760417 21 4.041667 21 4.598958 21 Z M 4.598958 21 " transform="matrix(0.75,0,0,0.75,0,0)"/>
</g>
</svg>