<?xml version="1.0" encoding="UTF-8"?>
<svg xmlns="http://www.w3.org/2000/svg" xmlns:xlink="http://www.w3.org/1999/xlink" width="30px" height="30px" viewBox="0 0 30 30" version="1.1">
<g id="surface1">
<path style="fill:none;stroke-width:1;stroke-linecap:butt;stroke-linejoin:miter;stroke:rgb(0%,0%,0%);stroke-opacity:1;stroke-miterlimit:4;" d="M 8 8 L 20 8 L 20 20 L 8 20 Z M 8 8 " transform="matrix(0.46875,0,0,0.46875,0,0)"/>
<path style="fill:none;stroke-width:1;stroke-linecap:butt;stroke-linejoin:miter;stroke:rgb(0%,0%,0%);stroke-opacity:1;stroke-miterlimit:4;" d="M 26 8 L 38 8 L 38 20 L 26 20 Z M 26 8 " transform="matrix(0.46875,0,0,0.46875,0,0)"/>
<path style="fill:none;stroke-width:1;stroke-linecap:butt;stroke-linejoin:miter;stroke:rgb(0%,0%,0%);stroke-opacity:1;stroke-miterlimit:4;" d="M 26 44 L 38 44 L 38 56 L 26 56 Z M 26 44 " transform="matrix(0.46875,0,0,0.46875,0,0)"/>
<path style="fill:none;stroke-width:1;stroke-linecap:butt;stroke-linejoin:miter;stroke:rgb(0%,0%,0%);stroke-opacity:1;stroke-miterlimit:4;" d="M 44 8 L 56 8 L 56 20 L 44 20 Z M 44 8 " transform="matrix(0.46875,0,0,0.46875,0,0)"/>
<path style="fill:none;stroke-width:1;stroke-linecap:butt;stroke-linejoin:miter;stroke:rgb(0%,0%,0%);stroke-opacity:1;stroke-miterlimit:4;" d="M 8 26 L 20 26 L 20 38 L 8 38 Z M 8 26 " transform="matrix(0.46875,0,0,0.46875,0,0)"/>
<path style="fill:none;stroke-width:1;stroke-linecap:butt;stroke-linejoin:miter;stroke:rgb(0%,0%,0%);stroke-opacity:1;stroke-miterlimit:4;" d="M 26 26 L 38 26 L 38 38 L 26 38 Z M 26 26 " transform="matrix(0.46875,0,0,0.46875,0,0)"/>
<path style="fill:none;stroke-width:1;stroke-linecap:butt;stroke-linejoin:miter;stroke:rgb(0%,0%,0%);stroke-opacity:1;stroke-miterlimit:4;" d="M 44 26 L 56 26 L 56 38 L 44 38 Z M 44 26 " transform="matrix(0.46875,0,0,0.46875,0,0)"/>
<path style="fill:none;stroke-width:1;stroke-linecap:butt;stroke-linejoin:miter;stroke:rgb(0%,0%,0%);stroke-opacity:1;stroke-miterlimit:4;" d="M 8 44 L 20 44 L 20 56 L 8 56 Z M 8 44 " transform="matrix(0.46875,0,0,0.46875,0,0)"/>
<path style="fill:none;stroke-width:1;stroke-linecap:butt;stroke-linejoin:miter;stroke:rgb(0%,0%,0%);stroke-opacity:1;stroke-miterlimit:4;" d="M 44 44 L 56 44 L 56 56 L 44 56 Z M 44 44 " transform="matrix(0.46875,0,0,0.46875,0,0)"/>
</g>
</svg>
