<svg xmlns="http://www.w3.org/2000/svg" xmlns:xlink="http://www.w3.org/1999/xlink" width="18px" height="18px" viewBox="0 0 18 18" version="1.1">
<g id="surface1">
<path style=" stroke:none;fill-rule:nonzero;fill:#9ca3af;fill-opacity:1;" d="M 8.25 3 L 8.25 6.75 C 8.25 7.578125 7.578125 8.25 6.75 8.25 L 3 8.25 C 2.171875 8.25 1.5 7.578125 1.5 6.75 L 1.5 3 C 1.5 2.171875 2.171875 1.5 3 1.5 L 6.75 1.5 C 7.578125 1.5 8.25 2.171875 8.25 3 Z M 15 1.5 L 11.25 1.5 C 10.421875 1.5 9.75 2.171875 9.75 3 L 9.75 6.75 C 9.75 7.578125 10.421875 8.25 11.25 8.25 L 15 8.25 C 15.828125 8.25 16.5 7.578125 16.5 6.75 L 16.5 3 C 16.5 2.171875 15.828125 1.5 15 1.5 Z M 6.75 9.75 L 3 9.75 C 2.171875 9.75 1.5 10.421875 1.5 11.25 L 1.5 15 C 1.5 15.828125 2.171875 16.5 3 16.5 L 6.75 16.5 C 7.578125 16.5 8.25 15.828125 8.25 15 L 8.25 11.25 C 8.25 10.421875 7.578125 9.75 6.75 9.75 Z M 10.5 13.5 L 12.75 13.5 C 13.164062 13.5 13.5 13.164062 13.5 12.75 L 13.5 10.5 C 13.5 10.085938 13.164062 9.75 12.75 9.75 L 10.5 9.75 C 10.085938 9.75 9.75 10.085938 9.75 10.5 L 9.75 12.75 C 9.75 13.164062 10.085938 13.5 10.5 13.5 Z M 15.75 9.75 C 15.335938 9.75 15 10.085938 15 10.5 L 15 14.25 C 15 14.664062 14.664062 15 14.25 15 L 10.5 15 C 10.085938 15 9.75 15.335938 9.75 15.75 C 9.75 16.164062 10.085938 16.5 10.5 16.5 L 14.25 16.5 C 15.492188 16.5 16.5 15.492188 16.5 14.25 L 16.5 10.5 C 16.5 10.085938 16.164062 9.75 15.75 9.75 Z M 15.75 9.75 "/>
</g>
</svg>