<svg width="40" height="41" viewBox="0 0 40 41" fill="none" xmlns="http://www.w3.org/2000/svg">
<rect y="0.5" width="40" height="40" rx="20" fill="#E5C6FF"/>
<g clip-path="url(#clip0_947_10827)">
<mask id="path-2-inside-1_947_10827" fill="white">
<path d="M32 20.832C32 27.4594 26.6274 32.832 20 32.832C13.3726 32.832 8 27.4594 8 20.832C8 14.2046 13.3726 8.83203 20 8.83203C26.6274 8.83203 32 14.2046 32 20.832ZM9.49992 20.832C9.49992 26.6311 14.201 31.3321 20 31.3321C25.799 31.3321 30.5001 26.6311 30.5001 20.832C30.5001 15.033 25.799 10.3319 20 10.3319C14.201 10.3319 9.49992 15.033 9.49992 20.832Z"/>
</mask>
<path d="M32 20.832C32 27.4594 26.6274 32.832 20 32.832C13.3726 32.832 8 27.4594 8 20.832C8 14.2046 13.3726 8.83203 20 8.83203C26.6274 8.83203 32 14.2046 32 20.832ZM9.49992 20.832C9.49992 26.6311 14.201 31.3321 20 31.3321C25.799 31.3321 30.5001 26.6311 30.5001 20.832C30.5001 15.033 25.799 10.3319 20 10.3319C14.201 10.3319 9.49992 15.033 9.49992 20.832Z" stroke="#194f78" stroke-width="3" mask="url(#path-2-inside-1_947_10827)"/>
<path d="M15.085 25.832V15.332H16.315L23.245 23.957H22.615V15.332H24.115V25.832H22.885L15.94 17.207H16.57V25.832H15.085ZM13.45 22.037V21.197H25.75V22.037H13.45ZM13.45 19.967V19.127H25.75V19.967H13.45Z" fill="black"/>
</g>
<defs>
<clipPath id="clip0_947_10827">
<rect width="24" height="24" fill="white" transform="translate(8 8.83203)"/>
</clipPath>
</defs>
</svg>
