<svg width="40" height="40" viewBox="0 0 40 40" fill="none" xmlns="http://www.w3.org/2000/svg">
<rect width="40" height="40" rx="20" fill="#E5E7EB"/>
<g clip-path="url(#clip0_981_10892)">
<mask id="path-2-inside-1_981_10892" fill="white">
<path d="M32 20.332C32 26.9594 26.6274 32.332 20 32.332C13.3726 32.332 8 26.9594 8 20.332C8 13.7046 13.3726 8.33203 20 8.33203C26.6274 8.33203 32 13.7046 32 20.332ZM9.49992 20.332C9.49992 26.1311 14.201 30.8321 20 30.8321C25.799 30.8321 30.5001 26.1311 30.5001 20.332C30.5001 14.533 25.799 9.83195 20 9.83195C14.201 9.83195 9.49992 14.533 9.49992 20.332Z"/>
</mask>
<path d="M32 20.332C32 26.9594 26.6274 32.332 20 32.332C13.3726 32.332 8 26.9594 8 20.332C8 13.7046 13.3726 8.33203 20 8.33203C26.6274 8.33203 32 13.7046 32 20.332ZM9.49992 20.332C9.49992 26.1311 14.201 30.8321 20 30.8321C25.799 30.8321 30.5001 26.1311 30.5001 20.332C30.5001 14.533 25.799 9.83195 20 9.83195C14.201 9.83195 9.49992 14.533 9.49992 20.332Z" stroke="#194f78" stroke-width="3" mask="url(#path-2-inside-1_981_10892)"/>
<path d="M15.085 25.332V14.832H16.315L23.245 23.457H22.615V14.832H24.115V25.332H22.885L15.94 16.707H16.57V25.332H15.085ZM13.45 21.537V20.697H25.75V21.537H13.45ZM13.45 19.467V18.627H25.75V19.467H13.45Z" fill="black"/>
</g>
<defs>
<clipPath id="clip0_981_10892">
<rect width="24" height="24" fill="white" transform="translate(8 8.33203)"/>
</clipPath>
</defs>
</svg>
