<?xml version="1.0" encoding="UTF-8"?>
<svg xmlns="http://www.w3.org/2000/svg" xmlns:xlink="http://www.w3.org/1999/xlink" width="35px" height="35px" viewBox="0 0 35 35" version="1.1">
<g id="surface1">
<path style=" stroke:none;fill-rule:evenodd;fill:rgb(0%,0%,0%);fill-opacity:1;" d="M 29.480469 31.5 L 5.519531 31.5 C 4.453125 31.5 3.636719 30.558594 3.785156 29.503906 L 5.785156 15.503906 C 5.910156 14.640625 6.648438 14 7.519531 14 L 8.75 14 L 8.75 17.5 C 8.75 18.464844 9.53125 19.25 10.5 19.25 C 11.464844 19.25 12.25 18.464844 12.25 17.5 L 12.25 14 L 22.75 14 L 22.75 17.5 C 22.75 18.464844 23.53125 19.25 24.5 19.25 C 25.464844 19.25 26.25 18.464844 26.25 17.5 L 26.25 14 L 27.480469 14 C 28.351562 14 29.089844 14.640625 29.214844 15.503906 L 31.214844 29.503906 C 31.363281 30.558594 30.546875 31.5 29.480469 31.5 Z M 12.25 8.75 C 12.25 5.855469 14.605469 3.5 17.5 3.5 C 20.394531 3.5 22.75 5.25 22.75 8.75 L 22.75 10.5 L 12.25 10.5 Z M 34.964844 31.003906 L 32.464844 13.503906 C 32.21875 11.78125 30.742188 10.5 29 10.5 L 26.25 10.5 L 26.25 8.75 C 26.25 3.5 22.324219 0 17.5 0 C 12.675781 0 8.75 3.925781 8.75 8.75 L 8.75 10.5 L 6.535156 10.5 C 4.792969 10.5 2.78125 11.78125 2.535156 13.503906 L 0.0351562 31.003906 C -0.265625 33.113281 1.371094 35 3.5 35 L 31.5 35 C 33.628906 35 35.265625 33.113281 34.964844 31.003906 Z M 34.964844 31.003906 "/>
</g>
</svg>
