<?xml version="1.0" encoding="UTF-8"?>
<svg xmlns="http://www.w3.org/2000/svg" xmlns:xlink="http://www.w3.org/1999/xlink" width="25px" height="25px" viewBox="0 0 25 25" version="1.1">
<g id="surface1">
<path style=" stroke:none;fill-rule:nonzero;fill:rgb(0%,0%,0%);fill-opacity:1;" d="M 8.382812 17.523438 C 8.28125 17.523438 8.199219 17.445312 8.1875 17.339844 C 8.183594 17.289062 8.199219 17.242188 8.238281 17.203125 C 8.269531 17.160156 8.316406 17.136719 8.367188 17.132812 L 23.070312 16.027344 L 24.574219 6.640625 L 5.46875 6.640625 C 5.363281 6.640625 5.273438 6.554688 5.273438 6.445312 C 5.273438 6.394531 5.296875 6.34375 5.332031 6.308594 C 5.367188 6.273438 5.417969 6.25 5.46875 6.25 L 24.800781 6.25 C 24.859375 6.253906 24.914062 6.273438 24.949219 6.320312 C 24.988281 6.363281 25.003906 6.421875 24.996094 6.480469 L 23.433594 16.242188 C 23.417969 16.332031 23.34375 16.398438 23.253906 16.40625 L 8.398438 17.523438 C 8.394531 17.523438 8.386719 17.523438 8.382812 17.523438 Z M 7.617188 17.578125 C 7.53125 17.578125 7.453125 17.515625 7.429688 17.433594 L 3.132812 1.421875 C 3.121094 1.371094 3.128906 1.316406 3.152344 1.273438 C 3.179688 1.226562 3.222656 1.195312 3.273438 1.179688 C 3.375 1.152344 3.480469 1.214844 3.511719 1.320312 L 7.808594 17.332031 C 7.835938 17.4375 7.773438 17.542969 7.667969 17.570312 C 7.652344 17.574219 7.632812 17.578125 7.617188 17.578125 Z M 7.617188 17.578125 "/>
<path style=" stroke:none;fill-rule:nonzero;fill:rgb(0%,0%,0%);fill-opacity:1;" d="M 8.382812 17.523438 C 8.296875 17.523438 8.21875 17.464844 8.195312 17.378906 L 3.6875 0.640625 C 3.660156 0.535156 3.726562 0.429688 3.828125 0.402344 C 3.929688 0.375 4.039062 0.433594 4.066406 0.539062 L 8.570312 17.277344 C 8.597656 17.382812 8.539062 17.488281 8.433594 17.515625 C 8.417969 17.523438 8.402344 17.523438 8.382812 17.523438 Z M 3.324219 1.566406 L 0.589844 1.566406 C 0.535156 1.566406 0.484375 1.542969 0.449219 1.507812 C 0.414062 1.46875 0.394531 1.421875 0.394531 1.371094 C 0.394531 1.316406 0.414062 1.265625 0.449219 1.230469 C 0.484375 1.195312 0.535156 1.175781 0.589844 1.175781 L 3.324219 1.175781 C 3.375 1.175781 3.421875 1.195312 3.460938 1.230469 C 3.496094 1.265625 3.519531 1.316406 3.519531 1.371094 C 3.519531 1.421875 3.496094 1.46875 3.460938 1.507812 C 3.421875 1.542969 3.375 1.566406 3.324219 1.566406 Z M 3.324219 1.566406 "/>
<path style=" stroke:none;fill-rule:nonzero;fill:rgb(0%,0%,0%);fill-opacity:1;" d="M 3.878906 0.785156 L 0.589844 0.785156 C 0.535156 0.785156 0.484375 0.765625 0.449219 0.726562 C 0.414062 0.6875 0.394531 0.640625 0.394531 0.589844 C 0.394531 0.480469 0.480469 0.394531 0.589844 0.394531 L 3.878906 0.394531 C 3.929688 0.394531 3.980469 0.414062 4.015625 0.449219 C 4.050781 0.488281 4.074219 0.535156 4.074219 0.589844 C 4.074219 0.699219 3.984375 0.785156 3.878906 0.785156 Z M 3.878906 0.785156 "/>
<path style=" stroke:none;fill-rule:nonzero;fill:rgb(0%,0%,0%);fill-opacity:1;" d="M 0.589844 1.566406 C 0.265625 1.566406 0.00390625 1.304688 0.00390625 0.980469 C 0.00390625 0.65625 0.265625 0.394531 0.589844 0.394531 C 0.640625 0.394531 0.6875 0.414062 0.726562 0.449219 C 0.761719 0.488281 0.785156 0.535156 0.785156 0.589844 C 0.785156 0.640625 0.761719 0.6875 0.726562 0.726562 C 0.6875 0.765625 0.640625 0.785156 0.589844 0.785156 C 0.480469 0.785156 0.394531 0.871094 0.394531 0.980469 C 0.394531 1.089844 0.480469 1.175781 0.589844 1.175781 C 0.640625 1.175781 0.6875 1.195312 0.726562 1.230469 C 0.761719 1.265625 0.785156 1.316406 0.785156 1.371094 C 0.785156 1.421875 0.761719 1.46875 0.726562 1.507812 C 0.6875 1.542969 0.640625 1.566406 0.589844 1.566406 Z M 23.238281 8.984375 L 7.359375 8.984375 C 7.308594 8.984375 7.261719 8.964844 7.222656 8.929688 C 7.1875 8.890625 7.164062 8.84375 7.164062 8.789062 C 7.164062 8.738281 7.1875 8.6875 7.222656 8.652344 C 7.261719 8.617188 7.308594 8.59375 7.359375 8.59375 L 23.238281 8.59375 C 23.347656 8.59375 23.433594 8.683594 23.433594 8.789062 C 23.433594 8.84375 23.414062 8.890625 23.378906 8.929688 C 23.34375 8.964844 23.292969 8.984375 23.238281 8.984375 Z M 22.457031 11.71875 L 8.53125 11.71875 C 8.421875 11.71875 8.335938 11.632812 8.335938 11.523438 C 8.335938 11.414062 8.421875 11.328125 8.53125 11.328125 L 22.457031 11.328125 C 22.566406 11.328125 22.652344 11.414062 22.652344 11.523438 C 22.652344 11.632812 22.566406 11.71875 22.457031 11.71875 Z M 21.675781 14.453125 L 9.3125 14.453125 C 9.261719 14.453125 9.214844 14.433594 9.175781 14.394531 C 9.136719 14.359375 9.117188 14.308594 9.117188 14.257812 C 9.117188 14.203125 9.136719 14.15625 9.175781 14.117188 C 9.214844 14.082031 9.261719 14.0625 9.3125 14.0625 L 21.675781 14.0625 C 21.730469 14.0625 21.78125 14.082031 21.816406 14.117188 C 21.851562 14.15625 21.871094 14.203125 21.871094 14.257812 C 21.871094 14.367188 21.785156 14.453125 21.675781 14.453125 Z M 7.226562 19.917969 C 7.199219 19.921875 7.167969 19.914062 7.144531 19.902344 C 7.09375 19.878906 7.058594 19.839844 7.042969 19.789062 C 7.027344 19.742188 7.027344 19.6875 7.050781 19.640625 L 8.207031 17.242188 C 8.253906 17.144531 8.371094 17.105469 8.46875 17.152344 C 8.566406 17.199219 8.605469 17.316406 8.558594 17.414062 L 7.402344 19.808594 C 7.371094 19.878906 7.300781 19.921875 7.226562 19.917969 Z M 6.453125 19.917969 C 6.425781 19.921875 6.394531 19.914062 6.371094 19.902344 C 6.324219 19.878906 6.285156 19.839844 6.269531 19.789062 C 6.253906 19.742188 6.253906 19.6875 6.277344 19.640625 L 7.4375 17.242188 C 7.480469 17.144531 7.597656 17.105469 7.695312 17.152344 C 7.792969 17.199219 7.832031 17.316406 7.789062 17.414062 L 6.628906 19.808594 C 6.597656 19.878906 6.527344 19.921875 6.453125 19.917969 Z M 22.457031 21.480469 L 8.398438 21.480469 C 8.347656 21.480469 8.296875 21.460938 8.261719 21.425781 C 8.226562 21.390625 8.203125 21.339844 8.203125 21.285156 C 8.203125 21.179688 8.292969 21.089844 8.398438 21.089844 L 22.457031 21.089844 C 22.511719 21.089844 22.5625 21.113281 22.597656 21.148438 C 22.632812 21.1875 22.652344 21.234375 22.652344 21.285156 C 22.652344 21.339844 22.632812 21.390625 22.597656 21.425781 C 22.5625 21.460938 22.511719 21.480469 22.457031 21.480469 Z M 22.457031 20.699219 L 8.398438 20.699219 C 8.347656 20.699219 8.296875 20.679688 8.261719 20.644531 C 8.226562 20.609375 8.203125 20.558594 8.203125 20.503906 C 8.203125 20.453125 8.226562 20.40625 8.261719 20.367188 C 8.296875 20.332031 8.347656 20.308594 8.398438 20.308594 L 22.457031 20.308594 C 22.511719 20.308594 22.5625 20.332031 22.597656 20.367188 C 22.632812 20.40625 22.652344 20.453125 22.652344 20.503906 C 22.652344 20.558594 22.632812 20.609375 22.597656 20.644531 C 22.5625 20.679688 22.511719 20.699219 22.457031 20.699219 Z M 22.457031 20.699219 "/>
<path style=" stroke:none;fill-rule:nonzero;fill:rgb(0%,0%,0%);fill-opacity:1;" d="M 8.398438 21.480469 C 7.214844 21.480469 6.25 20.695312 6.25 19.722656 C 6.25 19.671875 6.273438 19.625 6.308594 19.585938 C 6.34375 19.550781 6.394531 19.53125 6.445312 19.53125 C 6.5 19.53125 6.546875 19.550781 6.585938 19.585938 C 6.621094 19.625 6.640625 19.671875 6.640625 19.722656 C 6.640625 20.480469 7.429688 21.089844 8.398438 21.089844 C 8.453125 21.089844 8.5 21.113281 8.539062 21.148438 C 8.574219 21.1875 8.59375 21.234375 8.59375 21.285156 C 8.59375 21.339844 8.574219 21.390625 8.539062 21.425781 C 8.5 21.460938 8.453125 21.480469 8.398438 21.480469 Z M 8.398438 21.480469 "/>
<path style=" stroke:none;fill-rule:nonzero;fill:rgb(0%,0%,0%);fill-opacity:1;" d="M 8.398438 20.699219 C 7.753906 20.699219 7.03125 20.285156 7.03125 19.722656 C 7.03125 19.671875 7.054688 19.625 7.089844 19.585938 C 7.125 19.550781 7.175781 19.53125 7.226562 19.53125 C 7.28125 19.53125 7.328125 19.550781 7.367188 19.585938 C 7.402344 19.625 7.421875 19.671875 7.421875 19.722656 C 7.421875 20.011719 7.925781 20.308594 8.398438 20.308594 C 8.453125 20.308594 8.5 20.332031 8.539062 20.367188 C 8.574219 20.40625 8.59375 20.453125 8.59375 20.503906 C 8.59375 20.558594 8.574219 20.609375 8.539062 20.644531 C 8.5 20.679688 8.453125 20.699219 8.398438 20.699219 Z M 22.457031 21.480469 C 22.40625 21.480469 22.359375 21.460938 22.320312 21.425781 C 22.285156 21.390625 22.261719 21.339844 22.261719 21.285156 C 22.261719 21.179688 22.351562 21.089844 22.457031 21.089844 C 22.566406 21.089844 22.652344 21.003906 22.652344 20.894531 C 22.652344 20.789062 22.566406 20.699219 22.457031 20.699219 C 22.40625 20.699219 22.359375 20.679688 22.320312 20.644531 C 22.285156 20.609375 22.261719 20.558594 22.261719 20.503906 C 22.261719 20.453125 22.285156 20.40625 22.320312 20.367188 C 22.359375 20.332031 22.40625 20.308594 22.457031 20.308594 C 22.78125 20.308594 23.042969 20.574219 23.042969 20.894531 C 23.042969 21.21875 22.78125 21.480469 22.457031 21.480469 Z M 20.894531 15.234375 C 20.84375 15.234375 20.796875 15.210938 20.757812 15.175781 C 20.722656 15.140625 20.699219 15.089844 20.699219 15.039062 L 20.699219 8.007812 C 20.699219 7.957031 20.722656 7.90625 20.757812 7.871094 C 20.796875 7.835938 20.84375 7.8125 20.894531 7.8125 C 20.949219 7.8125 21 7.835938 21.035156 7.871094 C 21.070312 7.90625 21.089844 7.957031 21.089844 8.007812 L 21.089844 15.039062 C 21.089844 15.148438 21.003906 15.234375 20.894531 15.234375 Z M 18.164062 15.234375 C 18.109375 15.234375 18.0625 15.210938 18.023438 15.175781 C 17.988281 15.140625 17.96875 15.089844 17.96875 15.039062 L 17.96875 8.007812 C 17.96875 7.957031 17.988281 7.90625 18.023438 7.871094 C 18.0625 7.835938 18.109375 7.8125 18.164062 7.8125 C 18.269531 7.8125 18.359375 7.902344 18.359375 8.007812 L 18.359375 15.039062 C 18.359375 15.089844 18.335938 15.140625 18.300781 15.175781 C 18.265625 15.210938 18.214844 15.234375 18.164062 15.234375 Z M 15.429688 15.234375 C 15.375 15.234375 15.328125 15.210938 15.289062 15.175781 C 15.253906 15.140625 15.234375 15.089844 15.234375 15.039062 L 15.234375 8.007812 C 15.234375 7.957031 15.253906 7.90625 15.289062 7.871094 C 15.328125 7.835938 15.375 7.8125 15.429688 7.8125 C 15.535156 7.8125 15.625 7.902344 15.625 8.007812 L 15.625 15.039062 C 15.625 15.089844 15.601562 15.140625 15.566406 15.175781 C 15.53125 15.210938 15.480469 15.234375 15.429688 15.234375 Z M 12.695312 15.234375 C 12.640625 15.234375 12.59375 15.210938 12.554688 15.175781 C 12.519531 15.140625 12.5 15.089844 12.5 15.039062 L 12.5 8.007812 C 12.5 7.957031 12.519531 7.90625 12.554688 7.871094 C 12.59375 7.835938 12.640625 7.8125 12.695312 7.8125 C 12.804688 7.8125 12.890625 7.902344 12.890625 8.007812 L 12.890625 15.039062 C 12.890625 15.089844 12.871094 15.140625 12.832031 15.175781 C 12.796875 15.210938 12.75 15.234375 12.695312 15.234375 Z M 9.960938 15.234375 C 9.910156 15.234375 9.859375 15.210938 9.824219 15.175781 C 9.789062 15.140625 9.765625 15.089844 9.765625 15.039062 L 9.765625 8.007812 C 9.765625 7.957031 9.789062 7.90625 9.824219 7.871094 C 9.859375 7.835938 9.910156 7.8125 9.960938 7.8125 C 10.015625 7.8125 10.0625 7.835938 10.101562 7.871094 C 10.136719 7.90625 10.15625 7.957031 10.15625 8.007812 L 10.15625 15.039062 C 10.15625 15.089844 10.136719 15.140625 10.101562 15.175781 C 10.0625 15.210938 10.015625 15.234375 9.960938 15.234375 Z M 9.765625 24.605469 C 8.902344 24.605469 8.203125 23.90625 8.203125 23.042969 C 8.203125 22.894531 8.226562 22.742188 8.269531 22.597656 C 8.300781 22.496094 8.410156 22.4375 8.511719 22.464844 C 8.558594 22.484375 8.601562 22.515625 8.628906 22.5625 C 8.652344 22.605469 8.65625 22.660156 8.644531 22.710938 C 8.609375 22.816406 8.59375 22.933594 8.59375 23.042969 C 8.59375 23.691406 9.121094 24.214844 9.765625 24.214844 C 10.414062 24.214844 10.9375 23.691406 10.9375 23.042969 C 10.9375 22.929688 10.921875 22.816406 10.890625 22.710938 C 10.875 22.660156 10.878906 22.605469 10.902344 22.5625 C 10.929688 22.515625 10.972656 22.484375 11.019531 22.464844 C 11.070312 22.453125 11.125 22.457031 11.167969 22.484375 C 11.214844 22.507812 11.25 22.550781 11.265625 22.597656 C 11.304688 22.742188 11.328125 22.894531 11.328125 23.042969 C 11.328125 23.90625 10.628906 24.605469 9.765625 24.605469 Z M 9.765625 24.605469 "/>
<path style=" stroke:none;fill-rule:nonzero;fill:rgb(0%,0%,0%);fill-opacity:1;" d="M 9.765625 23.628906 C 9.328125 23.628906 8.890625 22.601562 8.605469 21.738281 C 8.570312 21.636719 8.625 21.527344 8.726562 21.492188 C 8.777344 21.476562 8.832031 21.480469 8.878906 21.503906 C 8.921875 21.527344 8.960938 21.566406 8.976562 21.617188 C 9.242188 22.421875 9.621094 23.183594 9.78125 23.242188 C 9.910156 23.183594 10.289062 22.421875 10.558594 21.617188 C 10.574219 21.566406 10.609375 21.527344 10.65625 21.503906 C 10.699219 21.480469 10.757812 21.476562 10.804688 21.492188 C 10.855469 21.507812 10.894531 21.546875 10.917969 21.589844 C 10.941406 21.636719 10.941406 21.691406 10.925781 21.738281 C 10.640625 22.601562 10.207031 23.628906 9.765625 23.628906 Z M 19.917969 24.605469 C 19.058594 24.605469 18.359375 23.90625 18.359375 23.042969 C 18.359375 22.894531 18.378906 22.742188 18.421875 22.597656 C 18.453125 22.496094 18.5625 22.4375 18.667969 22.464844 C 18.769531 22.496094 18.828125 22.605469 18.796875 22.710938 C 18.765625 22.816406 18.75 22.929688 18.75 23.042969 C 18.75 23.691406 19.273438 24.214844 19.917969 24.214844 C 20.566406 24.214844 21.089844 23.691406 21.089844 23.042969 C 21.089844 22.929688 21.078125 22.816406 21.042969 22.710938 C 21.011719 22.605469 21.070312 22.496094 21.175781 22.464844 C 21.277344 22.4375 21.386719 22.496094 21.417969 22.597656 C 21.460938 22.742188 21.480469 22.894531 21.480469 23.042969 C 21.480469 23.90625 20.78125 24.605469 19.917969 24.605469 Z M 19.917969 24.605469 "/>
<path style=" stroke:none;fill-rule:nonzero;fill:rgb(0%,0%,0%);fill-opacity:1;" d="M 19.917969 23.628906 C 19.480469 23.628906 19.046875 22.601562 18.757812 21.738281 C 18.726562 21.636719 18.78125 21.527344 18.882812 21.492188 C 18.929688 21.476562 18.984375 21.480469 19.03125 21.503906 C 19.078125 21.527344 19.113281 21.566406 19.128906 21.617188 C 19.398438 22.421875 19.773438 23.183594 19.933594 23.242188 C 20.066406 23.183594 20.445312 22.421875 20.710938 21.617188 C 20.726562 21.566406 20.761719 21.527344 20.808594 21.503906 C 20.855469 21.480469 20.910156 21.476562 20.957031 21.492188 C 21.058594 21.527344 21.117188 21.636719 21.082031 21.738281 C 20.796875 22.601562 20.359375 23.628906 19.917969 23.628906 Z M 19.917969 23.628906 "/>
</g>
</svg>
