<?xml version="1.0" encoding="UTF-8"?>
<svg xmlns="http://www.w3.org/2000/svg" xmlns:xlink="http://www.w3.org/1999/xlink" width="20px" height="20px" viewBox="0 0 20 20" version="1.1">
<g id="surface1">
<path style="fill:none;stroke-width:2;stroke-linecap:round;stroke-linejoin:round;stroke:rgb(0%,0%,0%);stroke-opacity:1;stroke-miterlimit:4;" d="M 16 3 C 23.18125 3 29 8.81875 29 16 C 29 23.18125 23.18125 29 16 29 C 8.81875 29 3 23.18125 3 16 C 3 8.81875 8.81875 3 16 3 Z M 16 3 L 16 1 M 9.3125 27.15 L 7 31 M 29.76875 7.88125 C 30.525 7.15 31 6.13125 31 5 C 31 2.7875 29.2125 1 27 1 C 25.86875 1 24.85 1.475 24.11875 2.23125 M 7.88125 2.23125 C 7.15 1.475 6.13125 1 5 1 C 2.7875 1 1 2.7875 1 5 C 1 6.13125 1.475 7.15 2.23125 7.88125 M 22 12 L 14 20 L 10 16 M 25 31 L 22.6875 27.15 " transform="matrix(0.625,0,0,0.625,0,0)"/>
</g>
</svg>
