<svg xmlns="http://www.w3.org/2000/svg" xmlns:xlink="http://www.w3.org/1999/xlink" width="18px" height="18px" viewBox="0 0 18 18" version="1.1">
<g id="surface1">
<path style=" stroke:none;fill-rule:evenodd;fill:#9ca3af;fill-opacity:1;" d="M 16.875 13.5 L 15.75 13.5 L 15.75 2.25 L 4.5 2.25 L 4.5 1.125 C 4.5 0.828125 4.617188 0.539062 4.828125 0.328125 C 5.039062 0.117188 5.328125 0 5.625 0 L 16.875 0 C 17.171875 0 17.460938 0.117188 17.671875 0.328125 C 17.882812 0.539062 18 0.828125 18 1.125 L 18 12.375 C 18 12.671875 17.882812 12.960938 17.671875 13.171875 C 17.460938 13.382812 17.171875 13.5 16.875 13.5 Z M 14.625 4.5 L 14.625 16.875 C 14.625 17.171875 14.507812 17.460938 14.296875 17.671875 C 14.085938 17.882812 13.796875 18 13.5 18 L 1.125 18 C 0.828125 18 0.539062 17.882812 0.328125 17.671875 C 0.117188 17.460938 0 17.171875 0 16.875 L 0 4.5 C 0 4.203125 0.117188 3.914062 0.328125 3.703125 C 0.539062 3.492188 0.828125 3.375 1.125 3.375 L 13.5 3.375 C 13.796875 3.375 14.085938 3.492188 14.296875 3.703125 C 14.507812 3.914062 14.625 4.203125 14.625 4.5 Z M 12.375 5.625 L 2.25 5.625 L 2.25 9 L 12.375 9 Z M 12.375 11.25 L 2.25 11.25 L 2.25 15.75 L 12.375 15.75 Z M 4.5 7.875 L 3.375 7.875 L 3.375 6.75 L 4.5 6.75 Z M 6.75 7.875 L 5.625 7.875 L 5.625 6.75 L 6.75 6.75 Z M 11.25 7.875 L 7.875 7.875 L 7.875 6.75 L 11.25 6.75 Z M 11.25 7.875 "/>
</g>
</svg>