<svg xmlns="http://www.w3.org/2000/svg" xmlns:xlink="http://www.w3.org/1999/xlink" width="18px" height="18px" viewBox="0 0 18 18" version="1.1">
<g id="surface1">
<path style=" stroke:none;fill-rule:evenodd;fill:#9ca3af;fill-opacity:1;" d="M 3.84375 5.25 C 5.003906 3.660156 6.878906 2.625 9 2.625 C 10.949219 2.625 12.695312 3.5 13.863281 4.878906 C 12.820312 4.523438 11.683594 5.511719 12.054688 6.675781 L 12.542969 8.21875 L 11.21875 11.496094 L 9.800781 7.96875 L 9.308594 6.75 L 9.75 6.75 C 10.164062 6.75 10.5 6.414062 10.5 6 C 10.5 5.585938 10.164062 5.25 9.75 5.25 L 7.5 5.25 C 7.085938 5.25 6.75 5.585938 6.75 6 C 6.75 6.414062 7.085938 6.75 7.5 6.75 L 7.691406 6.75 L 8.292969 8.242188 L 6.898438 11.5625 L 4.878906 6.75 L 5.25 6.75 C 5.664062 6.75 6 6.414062 6 6 C 6 5.585938 5.664062 5.25 5.25 5.25 Z M 3.140625 6.484375 C 2.808594 7.257812 2.625 8.105469 2.625 9 C 2.625 12.519531 5.480469 15.375 9 15.375 C 12.519531 15.375 15.375 12.519531 15.375 9 C 15.375 8.085938 15.183594 7.214844 14.835938 6.429688 C 14.820312 6.546875 14.789062 6.664062 14.742188 6.777344 L 14.035156 8.53125 L 11.910156 13.78125 C 11.796875 14.066406 11.519531 14.25 11.214844 14.25 C 10.910156 14.25 10.632812 14.0625 10.519531 13.78125 L 9.089844 10.222656 L 7.589844 13.789062 C 7.472656 14.070312 7.203125 14.25 6.898438 14.25 C 6.597656 14.25 6.324219 14.070312 6.207031 13.789062 Z M 9 1.125 C 4.652344 1.125 1.125 4.652344 1.125 9 C 1.125 13.347656 4.652344 16.875 9 16.875 C 13.347656 16.875 16.875 13.347656 16.875 9 C 16.875 4.652344 13.347656 1.125 9 1.125 Z M 9 1.125 "/>
</g>
</svg>